<?xml version="1.0" standalone="no"?>
<!DOCTYPE svg PUBLIC "-//W3C//DTD SVG 20010904//EN"
 "http://www.w3.org/TR/2001/REC-SVG-20010904/DTD/svg10.dtd">
<svg version="1.0" xmlns="http://www.w3.org/2000/svg"
 width="1024.000000pt" height="1024.000000pt" viewBox="0 0 1024.000000 1024.000000"
 preserveAspectRatio="xMidYMid meet">
<metadata>
Created by potrace 1.11, written by Peter Selinger 2001-2013
</metadata>
<g transform="translate(0.000000,1024.000000) scale(0.100000,-0.100000)"
fill="#000000" stroke="none">
<path d="M3223 9889 c-9 -9 -13 -58 -13 -171 0 -176 9 -210 58 -230 17 -6 136
-11 307 -13 154 -1 312 -5 350 -9 198 -20 368 -88 455 -183 72 -79 107 -156
136 -303 12 -62 12 -710 0 -718 -6 -4 -22 -7 -36 -8 -42 -2 -164 -14 -190 -19
-14 -2 -47 -7 -75 -10 -64 -8 -93 -12 -130 -19 -16 -2 -50 -8 -75 -11 -55 -9
-60 -10 -190 -35 -531 -105 -1015 -276 -1464 -519 -323 -175 -642 -431 -899
-721 -196 -221 -426 -575 -527 -811 -50 -116 -112 -302 -126 -374 -2 -11 -8
-40 -14 -65 -10 -46 -34 -189 -45 -270 -10 -72 -13 -437 -4 -530 19 -195 29
-255 65 -393 9 -32 17 -66 19 -75 10 -49 82 -271 121 -374 81 -212 180 -394
309 -567 71 -95 226 -274 296 -341 85 -81 137 -128 194 -175 33 -28 62 -52 65
-55 27 -29 291 -208 397 -269 379 -219 1106 -447 1678 -526 22 -3 54 -7 70
-10 17 -3 47 -7 68 -10 20 -3 52 -7 70 -9 17 -3 61 -8 97 -11 36 -3 79 -8 95
-10 17 -2 67 -7 113 -11 46 -3 91 -7 100 -9 9 -2 20 -4 23 -4 3 -1 5 -164 4
-363 -2 -314 -4 -373 -20 -433 -71 -278 -238 -406 -585 -451 -30 -4 -187 -8
-348 -9 l-293 -1 -25 -26 c-35 -34 -41 -70 -39 -236 1 -113 4 -146 16 -153 14
-9 150 -8 1064 7 757 13 1635 9 2483 -12 165 -4 227 -2 238 7 18 15 20 314 2
353 -25 57 -35 59 -368 62 -384 3 -494 18 -645 89 -120 56 -196 139 -243 266
-40 107 -45 170 -47 541 -1 319 0 358 14 362 9 3 48 7 86 11 84 8 239 28 305
41 14 3 37 7 52 9 35 5 136 24 168 31 14 3 36 7 50 10 259 49 747 205 986 314
35 17 67 30 70 30 9 0 280 137 364 185 251 142 494 317 673 484 557 522 905
1137 1001 1771 28 179 28 537 1 695 -55 319 -107 486 -232 740 -59 120 -83
161 -167 285 -156 231 -305 395 -567 625 -92 82 -277 219 -409 305 -58 38
-112 70 -117 70 -4 0 -14 6 -22 14 -26 23 -296 161 -426 216 -260 112 -632
232 -845 274 -14 2 -79 16 -145 29 -66 14 -138 27 -160 30 -22 3 -47 8 -55 11
-8 3 -37 8 -65 10 -27 3 -61 7 -75 10 -14 2 -49 7 -78 10 -28 3 -67 8 -85 10
-52 7 -136 15 -227 22 -47 3 -88 8 -91 10 -3 2 -5 157 -3 346 2 386 9 439 79
563 72 129 229 232 397 260 13 2 52 9 88 16 38 7 187 13 362 14 327 2 348 6
369 58 20 48 19 345 -1 358 -15 10 -297 8 -1125 -8 -198 -4 -614 -7 -925 -7
-521 1 -751 4 -1465 20 -203 4 -263 3 -272 -7z m1302 -4746 l0 -2688 -25 1
c-41 2 -135 13 -151 18 -8 3 -32 7 -54 10 -22 3 -51 8 -65 11 -14 3 -41 8 -60
11 -81 14 -315 76 -431 114 -633 210 -1156 599 -1436 1070 -195 327 -300 649
-358 1105 -21 159 -28 616 -12 787 28 316 98 609 202 853 75 176 203 391 282
473 7 7 13 17 13 20 0 10 176 192 235 243 51 44 67 57 158 125 130 97 363 221
542 289 55 21 109 41 120 46 65 27 374 110 460 124 17 3 68 12 115 21 109 20
339 49 410 52 l56 3 -1 -2688z m1335 2652 c8 -2 40 -6 70 -10 101 -10 327 -54
466 -90 605 -157 1125 -461 1417 -829 245 -308 387 -660 471 -1171 5 -33 14
-115 26 -240 8 -85 4 -646 -5 -730 -43 -399 -93 -602 -218 -890 -31 -71 -126
-257 -141 -275 -7 -8 -15 -22 -18 -30 -6 -16 -141 -199 -174 -236 -10 -12 -33
-36 -50 -55 -63 -71 -167 -158 -279 -234 -62 -43 -308 -185 -319 -185 -3 0
-78 -34 -201 -90 -197 -91 -652 -215 -900 -245 -27 -3 -77 -10 -110 -15 -33
-5 -87 -12 -120 -16 l-61 -6 0 2682 0 2682 66 -7 c36 -3 72 -8 80 -10z"/>
</g>
</svg>
